<mxfile host="app.diagrams.net" modified="2023-05-08T03:48:35.475Z" agent="Mozilla/5.0 (X11; Linux x86_64) AppleWebKit/537.36 (KHTML, like Gecko) Chrome/113.0.0.0 Safari/537.36" etag="-i2Qz3RAgOYa_Ur09lih" version="21.2.9" type="github">
  <diagram name="第 1 页" id="ds6DmyHLy8N-MVNwUg1l">
    <mxGraphModel dx="717" dy="382" grid="1" gridSize="10" guides="1" tooltips="1" connect="1" arrows="1" fold="1" page="1" pageScale="1" pageWidth="1169" pageHeight="827" math="0" shadow="0">
      <root>
        <mxCell id="0" />
        <mxCell id="1" parent="0" />
        <mxCell id="F45F0Zymsa6q3hlHXLxK-6" value="" style="edgeStyle=elbowEdgeStyle;rounded=0;orthogonalLoop=1;jettySize=auto;html=1;elbow=vertical;curved=0;entryX=-0.033;entryY=0.138;entryDx=0;entryDy=0;entryPerimeter=0;" edge="1" parent="1" source="-v_hblp8aSIAd71ABCoE-1" target="F45F0Zymsa6q3hlHXLxK-5">
          <mxGeometry relative="1" as="geometry" />
        </mxCell>
        <mxCell id="F45F0Zymsa6q3hlHXLxK-17" value="" style="edgeStyle=elbowEdgeStyle;rounded=0;orthogonalLoop=1;jettySize=auto;html=1;elbow=vertical;curved=0;" edge="1" parent="1" source="-v_hblp8aSIAd71ABCoE-1" target="F45F0Zymsa6q3hlHXLxK-10">
          <mxGeometry relative="1" as="geometry">
            <mxPoint x="309.5" y="190" as="targetPoint" />
            <Array as="points">
              <mxPoint x="240" y="220" />
            </Array>
          </mxGeometry>
        </mxCell>
        <mxCell id="-v_hblp8aSIAd71ABCoE-1" value=":采购方" style="shape=umlLifeline;perimeter=lifelinePerimeter;whiteSpace=wrap;html=1;container=1;dropTarget=0;collapsible=0;recursiveResize=0;outlineConnect=0;portConstraint=eastwest;newEdgeStyle={&quot;edgeStyle&quot;:&quot;elbowEdgeStyle&quot;,&quot;elbow&quot;:&quot;vertical&quot;,&quot;curved&quot;:0,&quot;rounded&quot;:0};" parent="1" vertex="1">
          <mxGeometry x="80" y="40" width="100" height="300" as="geometry" />
        </mxCell>
        <mxCell id="F45F0Zymsa6q3hlHXLxK-1" value="" style="html=1;points=[];perimeter=orthogonalPerimeter;outlineConnect=0;targetShapes=umlLifeline;portConstraint=eastwest;newEdgeStyle={&quot;edgeStyle&quot;:&quot;elbowEdgeStyle&quot;,&quot;elbow&quot;:&quot;vertical&quot;,&quot;curved&quot;:0,&quot;rounded&quot;:0};" vertex="1" parent="-v_hblp8aSIAd71ABCoE-1">
          <mxGeometry x="45" y="80" width="10" height="200" as="geometry" />
        </mxCell>
        <mxCell id="F45F0Zymsa6q3hlHXLxK-12" value="" style="edgeStyle=elbowEdgeStyle;rounded=0;orthogonalLoop=1;jettySize=auto;html=1;elbow=vertical;curved=0;" edge="1" parent="1" source="F45F0Zymsa6q3hlHXLxK-4" target="F45F0Zymsa6q3hlHXLxK-11">
          <mxGeometry relative="1" as="geometry">
            <mxPoint x="540" y="190" as="targetPoint" />
            <Array as="points">
              <mxPoint x="450" y="190" />
            </Array>
          </mxGeometry>
        </mxCell>
        <mxCell id="F45F0Zymsa6q3hlHXLxK-4" value=":MALL-CONSOLE-FE" style="shape=umlLifeline;perimeter=lifelinePerimeter;whiteSpace=wrap;html=1;container=1;dropTarget=0;collapsible=0;recursiveResize=0;outlineConnect=0;portConstraint=eastwest;newEdgeStyle={&quot;edgeStyle&quot;:&quot;elbowEdgeStyle&quot;,&quot;elbow&quot;:&quot;vertical&quot;,&quot;curved&quot;:0,&quot;rounded&quot;:0};" vertex="1" parent="1">
          <mxGeometry x="259" y="40" width="140" height="300" as="geometry" />
        </mxCell>
        <mxCell id="F45F0Zymsa6q3hlHXLxK-5" value="" style="html=1;points=[];perimeter=orthogonalPerimeter;outlineConnect=0;targetShapes=umlLifeline;portConstraint=eastwest;newEdgeStyle={&quot;edgeStyle&quot;:&quot;elbowEdgeStyle&quot;,&quot;elbow&quot;:&quot;vertical&quot;,&quot;curved&quot;:0,&quot;rounded&quot;:0};" vertex="1" parent="F45F0Zymsa6q3hlHXLxK-4">
          <mxGeometry x="65" y="80" width="10" height="190" as="geometry" />
        </mxCell>
        <mxCell id="F45F0Zymsa6q3hlHXLxK-7" value="1、打开管理端页面" style="text;html=1;align=center;verticalAlign=middle;resizable=0;points=[];autosize=1;strokeColor=none;fillColor=none;" vertex="1" parent="1">
          <mxGeometry x="160" y="118" width="130" height="30" as="geometry" />
        </mxCell>
        <mxCell id="F45F0Zymsa6q3hlHXLxK-8" value="" style="edgeStyle=elbowEdgeStyle;rounded=0;orthogonalLoop=1;jettySize=auto;html=1;elbow=vertical;curved=0;" edge="1" parent="1" source="F45F0Zymsa6q3hlHXLxK-1" target="F45F0Zymsa6q3hlHXLxK-5">
          <mxGeometry relative="1" as="geometry">
            <Array as="points">
              <mxPoint x="230" y="180" />
            </Array>
          </mxGeometry>
        </mxCell>
        <mxCell id="F45F0Zymsa6q3hlHXLxK-9" value="2、点击登录按钮" style="text;html=1;align=center;verticalAlign=middle;resizable=0;points=[];autosize=1;strokeColor=none;fillColor=none;" vertex="1" parent="1">
          <mxGeometry x="170" y="155" width="110" height="30" as="geometry" />
        </mxCell>
        <mxCell id="F45F0Zymsa6q3hlHXLxK-10" value=":SPS-PORTAL-FE" style="shape=umlLifeline;perimeter=lifelinePerimeter;whiteSpace=wrap;html=1;container=1;dropTarget=0;collapsible=0;recursiveResize=0;outlineConnect=0;portConstraint=eastwest;newEdgeStyle={&quot;edgeStyle&quot;:&quot;elbowEdgeStyle&quot;,&quot;elbow&quot;:&quot;vertical&quot;,&quot;curved&quot;:0,&quot;rounded&quot;:0};" vertex="1" parent="1">
          <mxGeometry x="479" y="40" width="140" height="300" as="geometry" />
        </mxCell>
        <mxCell id="F45F0Zymsa6q3hlHXLxK-11" value="" style="html=1;points=[];perimeter=orthogonalPerimeter;outlineConnect=0;targetShapes=umlLifeline;portConstraint=eastwest;newEdgeStyle={&quot;edgeStyle&quot;:&quot;elbowEdgeStyle&quot;,&quot;elbow&quot;:&quot;vertical&quot;,&quot;curved&quot;:0,&quot;rounded&quot;:0};" vertex="1" parent="F45F0Zymsa6q3hlHXLxK-10">
          <mxGeometry x="65" y="80" width="10" height="190" as="geometry" />
        </mxCell>
        <mxCell id="F45F0Zymsa6q3hlHXLxK-13" value="3、跳转到SPS门户登录页" style="text;html=1;align=center;verticalAlign=middle;resizable=0;points=[];autosize=1;strokeColor=none;fillColor=none;" vertex="1" parent="1">
          <mxGeometry x="355" y="165" width="160" height="30" as="geometry" />
        </mxCell>
        <mxCell id="F45F0Zymsa6q3hlHXLxK-18" value="4、以采购方身份登录" style="text;html=1;align=center;verticalAlign=middle;resizable=0;points=[];autosize=1;strokeColor=none;fillColor=none;" vertex="1" parent="1">
          <mxGeometry x="175" y="195" width="140" height="30" as="geometry" />
        </mxCell>
      </root>
    </mxGraphModel>
  </diagram>
</mxfile>
